<svg xmlns="http://www.w3.org/2000/svg" width="284.5" height="259.125" viewBox="0 0 284.5 259.125">
  <defs>
    <style>
      .cls-1 {
        fill: #fff;
        fill-rule: evenodd;
      }
    </style>
  </defs>
  <path id="icon-10-trees" class="cls-1" d="M1782.65,200.98C1782.52,200.793,1782.63,200.737,1782.65,200.98Zm104.66,127.51a5.2,5.2,0,0,1-4.52,1.625,0.693,0.693,0,0,1-.55.7,11.268,11.268,0,0,1-6.07-.34,0.684,0.684,0,0,1,.02.347,13.985,13.985,0,0,1,2.41.413,0.776,0.776,0,0,1,.22.1,21.028,21.028,0,0,0,5.45-.188,0.563,0.563,0,0,1,.39,1.04,10.205,10.205,0,0,1-4.74,1.4,0.837,0.837,0,0,1,.08.409,8.02,8.02,0,0,0,1.8-.11,0.743,0.743,0,0,1,.51,1.376,7.511,7.511,0,0,1-2.07.554,0.806,0.806,0,0,1-.74.542c-0.37.022-.72,0.041-1.07,0.056a0.553,0.553,0,0,1-.36.806,10.8,10.8,0,0,1-4.64-.058,8.042,8.042,0,0,0,2.79.794c1.95-.559,4.2-1.055,6.03-0.507a0.782,0.782,0,0,1,.49,1.029c0.99-.113,1.99-0.252,2.98-0.348,0.64-.063,1.16.9,0.43,1.17s-1.49.548-2.28,0.792a0.639,0.639,0,0,1-.12.4,9.171,9.171,0,0,0,2.81-.462c0.73-.258,1.14.928,0.46,1.264a14.276,14.276,0,0,1-7.64,1.325c-0.34-.018-0.72-0.048-1.12-0.1a0.623,0.623,0,0,1,.32.52,12.435,12.435,0,0,1,2.68.438,0.524,0.524,0,0,1-.03,1c-0.25.054-.52,0.111-0.8,0.163,0.92,0.184,1.86.311,2.78,0.459a0.888,0.888,0,0,1,.76.9c0.51,0,1.03-.02,1.55-0.067a0.722,0.722,0,0,1,.3,1.355,10.947,10.947,0,0,1-5.97.735c-0.37.811-2.1,1.05-2.79,1.107a10.821,10.821,0,0,1-2.86-.183,10.614,10.614,0,0,1-3.18,3.311c0,0.325-.01.656-0.01,0.971a16.447,16.447,0,0,0,2.03-.037c0.22-.019.23,0.316,0.03,0.374-0.44.131-.89,0.242-1.34,0.336a0.66,0.66,0,0,1-.17,1.225c-0.2.034-.4,0.082-0.6,0.12-0.01.63-.03,1.232-0.05,1.815,0.75-.3,1.49-0.594,2.24-0.854,0.82-.287,1.09.908,0.48,1.324-0.82.569-1.77,1.2-2.79,1.809-0.02.4-.04,0.777-0.05,1.151a0.44,0.44,0,0,1,.27.425c0.22-.041.45-0.088,0.67-0.139,0.11-.039.22-0.075,0.32-0.119a1.323,1.323,0,0,1,.49-0.1,10.253,10.253,0,0,0,2.55-1.141,0.828,0.828,0,0,1,.95,1.329,9.2,9.2,0,0,1-1.09.853,11.367,11.367,0,0,1,1.95-.445,0.927,0.927,0,0,1,.5,1.771c-0.49.319-1.02,0.653-1.59,0.988,0.53,0.042,1.05.086,1.58,0.13a0.434,0.434,0,0,1,.08.855,17.373,17.373,0,0,1-1.86.3,0.651,0.651,0,0,1-.08.184,4.007,4.007,0,0,1-.82.838,0.962,0.962,0,0,1-1.35,1.244,2.5,2.5,0,0,1-.54-0.454,7.051,7.051,0,0,1-2.47-.052c0,0.038-.01.078-0.01,0.117a13.559,13.559,0,0,0,1.64.126c0.5,0,.75.815,0.23,1.007a5.959,5.959,0,0,1-.91.25,0.855,0.855,0,0,1-.13.963,7.238,7.238,0,0,1-1.22,1.126c-0.03.273-.07,0.547-0.11,0.819a4.024,4.024,0,0,0,3.53-.641,0.727,0.727,0,0,1,1.11.907,4.191,4.191,0,0,1-1.26,1.251,0.366,0.366,0,0,1-.14.313c-0.05.037-.1,0.069-0.15,0.105,0.55-.067,1.1-0.145,1.66-0.251a5.088,5.088,0,0,0,1.61-.614,6.063,6.063,0,0,1,.82-0.8,0.8,0.8,0,0,1,.78.027c1.03,0.841.33,2.089-.43,2.86a3.806,3.806,0,0,1-.88.651,0.5,0.5,0,0,1-.22.585,9.139,9.139,0,0,1-2.22.948,0.577,0.577,0,0,1-.34.725,9.445,9.445,0,0,1-4.04.323,1.772,1.772,0,0,1-1.18,1.547c0.05,0.024.09,0.049,0.14,0.073a0.335,0.335,0,0,1-.27.6c-0.05-.018-0.1-0.036-0.14-0.054-0.12.462-.22,0.931-0.34,1.388a1.188,1.188,0,0,1,.26.575,5.306,5.306,0,0,0,2.92-2.084,0.759,0.759,0,0,1,1.37.61,5.429,5.429,0,0,1-1.72,2.375,6.8,6.8,0,0,0,4.52-2.283,0.952,0.952,0,0,1,1.62,1,5.12,5.12,0,0,1-.29.456,0.685,0.685,0,0,1-.11.544,4.963,4.963,0,0,1-.47.607c1.41-.439,2.8-0.905,4.2-1.366a0.9,0.9,0,0,1,.61,1.674c-0.81.389-1.66,0.807-2.53,1.223a0.712,0.712,0,0,1-.67.736l-0.17.022a0.769,0.769,0,0,1-.42.452c-0.28.127-.57,0.242-0.86,0.361a0.333,0.333,0,0,1,.07.063,4.605,4.605,0,0,0,1.99-.993,0.812,0.812,0,0,1,1.11,1.185,7.9,7.9,0,0,1-3.62,1.929,0.77,0.77,0,0,1-.01,1.5,17.338,17.338,0,0,1-5.24.332,6.422,6.422,0,0,1-3.2.21c-0.1.057-.2,0.1-0.29,0.152a12.484,12.484,0,0,0,4.06.253,0.745,0.745,0,0,1,.33,1.453,15.03,15.03,0,0,1-7.13-.316,66,66,0,0,1-13.95,20.592q-18.555,18.549-54.36,18.807-35.565-.26-54.1-18.807-18.555-18.548-20.36-48.948-0.51-13.914-.51-24.99,0-11.334.51-25.763,1.035-19.322,9.66-34.393a59.349,59.349,0,0,1,7.91-10.772c-0.34-.207-0.69-0.411-0.99-0.626a0.422,0.422,0,0,1,.38-0.717c0.49,0.167.99,0.308,1.5,0.434q1.92-2,4.05-3.837c-1.1-.3-2.19-0.619-3.29-0.9a0.569,0.569,0,0,1,.25-1.109c0.89,0.165,1.79.324,2.68,0.484a0.581,0.581,0,0,1,.4-0.758c0.19-.057.39-0.1,0.59-0.149a18.658,18.658,0,0,1-3.5-1.984c-0.81-.586.18-1.963,1.02-1.438a19.684,19.684,0,0,0,3.37,1.6,0.815,0.815,0,0,1,.25-0.07c-1.91-1.156-3.7-2.584-5.16-3.643-0.66-.48.12-1.322,0.76-1.079,1.62,0.62,3.18,1.393,4.75,2.135,0.71,0.17,1.42.324,2.14,0.453a0.693,0.693,0,0,1,.24-0.2c-1.01-.713-1.99-1.455-2.98-2.174-0.37-.276.08-0.876,0.47-0.66,0.62,0.34,1.24.67,1.87,1-0.06-.128-0.12-0.257-0.17-0.389a0.87,0.87,0,0,1,1.03-1.074c-0.13-.1-0.26-0.2-0.39-0.3a15,15,0,0,0-1.4-.7,0.482,0.482,0,0,1,.25-0.9,0.661,0.661,0,0,1,.99-0.4,23.794,23.794,0,0,0,5.02,2.428,0.629,0.629,0,0,1,.41-0.111c-1.06-.648-2.09-1.347-3.13-1.99a0.15,0.15,0,0,1,.07-0.28,11.5,11.5,0,0,1,1.69.055,10.557,10.557,0,0,1-1.11-.822,0.706,0.706,0,0,1,.63-1.2c0.09,0.021.19,0.043,0.28,0.065-0.38-.259-0.75-0.54-1.1-0.832a16.038,16.038,0,0,1-4.81-3.03,0.867,0.867,0,0,1,.99-1.4c0.74,0.342,1.5.65,2.27,0.949a2.877,2.877,0,0,1-.15-0.507,16.257,16.257,0,0,1-1.97-1.772c-0.61-.646.15-1.933,0.96-1.357a18.927,18.927,0,0,0,2.88,1.651,3.49,3.49,0,0,1-.15-0.457,0.523,0.523,0,0,1,.85-0.528c0.32,0.26.64,0.505,0.97,0.733a1.029,1.029,0,0,1,.77.45,0.791,0.791,0,0,1,.08.1c0.27,0.162.54,0.314,0.82,0.457a0.565,0.565,0,0,0-.05-0.114,0.7,0.7,0,0,1,1.26-.561v0.006q-0.12-.3-0.21-0.611a1.22,1.22,0,0,1-.03-0.373c-2.33-.919-4.66-2.175-5.74-4.479-0.24-.513.27-1.369,0.88-0.94a18.135,18.135,0,0,0,5.74,2.452c-2.34-.785-4.67-2.307-5.7-4.175a0.476,0.476,0,0,1,.51-0.7c0.32,0.085.64,0.188,0.95,0.3a2.926,2.926,0,0,1-.91-2.221,0.935,0.935,0,0,1,.64-0.683,0.97,0.97,0,0,1,.57-0.022,0.686,0.686,0,0,1,.54.65v-0.184a1.052,1.052,0,0,0,.25.25c0.27,0.206.52,0.432,0.79,0.635,0.1,0.072.2,0.138,0.3,0.208a2.575,2.575,0,0,1,.13-0.591,0.709,0.709,0,0,1,1.29-.2,0.4,0.4,0,0,1,.51-0.091c-0.46-.555-0.87-1.1-1.19-1.537a0.369,0.369,0,0,1,.48-0.523c0.56,0.293,1.09.625,1.62,0.962-0.31-.328-0.62-0.667-0.9-1.026a0.447,0.447,0,0,1-.07-0.438c-0.6-.428-1.19-0.874-1.77-1.346a0.733,0.733,0,0,1,.84-1.177c1.45,0.691,2.84,1.505,4.3,2.161a29.883,29.883,0,0,1-4.23-3.249,0.723,0.723,0,0,1,.65-1.223c0.02,0,.03.011,0.05,0.016-1.23-1.048-2.48-2.47-2.37-4.036a0.589,0.589,0,0,1,1.08-.325,10.206,10.206,0,0,0,2.89,3.121c-0.81-1.119-1.05-2.211-.03-3a0.491,0.491,0,0,1,.74.393,1.989,1.989,0,0,0,.18.717,1.015,1.015,0,0,1,1.79-.108,8.9,8.9,0,0,0,.66,1.037,9.766,9.766,0,0,0-.44-1.388,0.741,0.741,0,0,1,1.16.489,6.574,6.574,0,0,0,.19.768,0.814,0.814,0,0,1,.17-0.073,31.086,31.086,0,0,0-1.42-3.578,0.629,0.629,0,0,1,.96-0.789c0.18,0.171.34,0.349,0.5,0.53,0.02-.1.03-0.2,0.05-0.3a7.969,7.969,0,0,1-.71-3.35,0.783,0.783,0,0,1,.61-0.775c-0.19-.324-0.39-0.646-0.6-0.971a0.742,0.742,0,0,1,.79-1.11c0.02,0.006.04,0.015,0.06,0.022-0.14-.423-0.28-0.845-0.41-1.261a0.511,0.511,0,0,1,.92-0.411c0.15,0.221.3,0.444,0.45,0.667,0.04-.293.08-0.584,0.11-0.877a1.35,1.35,0,0,1,2.08,0c0.03,0.293.07,0.584,0.11,0.877,0.15-.223.3-0.446,0.45-0.667a0.511,0.511,0,0,1,.92.411c-0.13.416-.27,0.838-0.41,1.261,0.02-.007.04-0.016,0.06-0.022a0.744,0.744,0,0,1,.79,1.11c-0.21.325-.41,0.647-0.61,0.971a0.791,0.791,0,0,1,.62.775,8.125,8.125,0,0,1-.71,3.35c0.02,0.1.03,0.2,0.05,0.3,0.16-.181.32-0.359,0.5-0.53a0.629,0.629,0,0,1,.96.789,31.086,31.086,0,0,0-1.42,3.578,0.814,0.814,0,0,1,.17.073c0.07-.251.14-0.506,0.19-0.768,0.19-1.036,1.63-.625,1.69.278,0.01,0.108,0,.211,0,0.318a0.949,0.949,0,0,1,.42-0.312,8.976,8.976,0,0,1,1.89-2.441,0.857,0.857,0,0,1,1.43.652c-0.01.075-.03,0.153-0.04,0.229a19.077,19.077,0,0,0,1.16-2.156c-0.62-.482.15-1.3,0.78-1.058,1.62,0.62,3.18,1.393,4.75,2.135,0.71,0.17,1.42.325,2.14,0.453a0.69,0.69,0,0,1,.24-0.2c-1.01-.714-1.99-1.455-2.98-2.175-0.37-.275.08-0.876,0.47-0.659,0.62,0.339,1.24.669,1.87,1-0.06-.128-0.12-0.256-0.17-0.389a0.868,0.868,0,0,1,1.03-1.072c-0.13-.1-0.26-0.2-0.39-0.3a14.767,14.767,0,0,0-1.4-.7,0.483,0.483,0,0,1,.25-0.9,0.659,0.659,0,0,1,.99-0.4,23.933,23.933,0,0,0,5.02,2.426,0.634,0.634,0,0,1,.41-0.111c-1.06-.648-2.09-1.347-3.13-1.991a0.15,0.15,0,0,1,.07-0.279,11.547,11.547,0,0,1,1.7.056,9.745,9.745,0,0,1-1.12-.823,0.706,0.706,0,0,1,.63-1.2l0.28,0.065c-0.38-.26-0.75-0.54-1.1-0.832a16.018,16.018,0,0,1-4.81-3.03,0.867,0.867,0,0,1,.99-1.4c0.74,0.343,1.5.65,2.27,0.948a2.78,2.78,0,0,1-.15-0.507,16.242,16.242,0,0,1-1.97-1.77c-0.61-.647.15-1.934,0.96-1.357a18.921,18.921,0,0,0,2.88,1.65,3.442,3.442,0,0,1-.15-0.457,0.522,0.522,0,0,1,.85-0.528c0.32,0.261.64,0.5,0.97,0.734a1.026,1.026,0,0,1,.77.45,0.785,0.785,0,0,1,.08.1c0.27,0.162.54,0.314,0.82,0.458a0.6,0.6,0,0,0-.05-0.115,0.694,0.694,0,0,1,1.25-.561c0.01,0,.01,0,0.01.006q-0.12-.3-0.21-0.611a1.22,1.22,0,0,1-.03-0.373c-2.33-.919-4.66-2.175-5.74-4.479-0.24-.512.27-1.369,0.88-0.941a18.092,18.092,0,0,0,5.74,2.453c-2.34-.785-4.67-2.307-5.7-4.174a0.476,0.476,0,0,1,.51-0.7c0.32,0.085.64,0.188,0.95,0.3a2.924,2.924,0,0,1-.91-2.22,0.931,0.931,0,0,1,.64-0.683,0.954,0.954,0,0,1,.57-0.023,0.686,0.686,0,0,1,.54.65v-0.183a1.091,1.091,0,0,0,.25.25c0.27,0.205.52,0.431,0.79,0.635,0.1,0.071.2,0.137,0.3,0.207a2.575,2.575,0,0,1,.13-0.591,0.71,0.71,0,0,1,1.29-.2,0.393,0.393,0,0,1,.51-0.09c-0.46-.555-0.87-1.1-1.19-1.539a0.368,0.368,0,0,1,.48-0.521c0.56,0.293,1.09.624,1.62,0.961-0.31-.328-0.62-0.667-0.9-1.026a0.445,0.445,0,0,1-.07-0.437c-0.6-.429-1.19-0.874-1.77-1.345a0.734,0.734,0,0,1,.84-1.179c1.45,0.692,2.84,1.505,4.3,2.161a28.7,28.7,0,0,1-4.22-3.249,0.719,0.719,0,0,1,.64-1.222c0.02,0,.03.011,0.05,0.014-1.23-1.047-2.48-2.469-2.37-4.035a0.588,0.588,0,0,1,1.08-.324,10.2,10.2,0,0,0,2.89,3.119c-0.81-1.118-1.05-2.21-.03-3a0.49,0.49,0,0,1,.74.392,2,2,0,0,0,.18.718,1.015,1.015,0,0,1,1.79-.109,8.9,8.9,0,0,0,.66,1.037,9.9,9.9,0,0,0-.44-1.389,0.741,0.741,0,0,1,1.16.49,6.574,6.574,0,0,0,.19.768,0.871,0.871,0,0,1,.17-0.073,31,31,0,0,0-1.42-3.577,0.63,0.63,0,0,1,.96-0.791c0.18,0.172.34,0.351,0.5,0.532,0.01-.1.03-0.2,0.05-0.305a8.125,8.125,0,0,1-.71-3.35,0.781,0.781,0,0,1,.61-0.774q-0.285-.486-0.6-0.971a0.742,0.742,0,0,1,.79-1.111c0.02,0.006.04,0.016,0.06,0.022-0.14-.423-0.28-0.844-0.41-1.262a0.51,0.51,0,0,1,.92-0.409q0.225,0.331.45,0.666c0.04-.293.08-0.584,0.11-0.876a1.349,1.349,0,0,1,2.08,0c0.03,0.292.07,0.583,0.11,0.876q0.225-.335.45-0.666a0.51,0.51,0,0,1,.92.409c-0.13.418-.27,0.839-0.41,1.262,0.02-.006.04-0.016,0.06-0.022a0.744,0.744,0,0,1,.79,1.111c-0.21.324-.41,0.647-0.61,0.971a0.78,0.78,0,0,1,.62.774,8.125,8.125,0,0,1-.71,3.35c0.02,0.1.03,0.2,0.05,0.305,0.16-.181.32-0.36,0.5-0.532a0.63,0.63,0,0,1,.96.791,31,31,0,0,0-1.42,3.577,0.871,0.871,0,0,1,.17.073c0.07-.251.14-0.506,0.19-0.768,0.19-1.036,1.63-.625,1.69.278,0.01,0.107,0,.211,0,0.318a0.964,0.964,0,0,1,.42-0.312,8.953,8.953,0,0,1,1.89-2.439,0.856,0.856,0,0,1,1.43.65c-0.01.075-.03,0.153-0.04,0.228a17.73,17.73,0,0,0,1.33-2.514c0.15-.368.79-0.458,0.86,0.029a8.479,8.479,0,0,1-.81,4.461,0.493,0.493,0,0,1,.86.319,3.681,3.681,0,0,1-1.03,2.573,0.445,0.445,0,0,1,.35.54,7.386,7.386,0,0,1-1.54,2.382,0.547,0.547,0,0,1,.1.278c0.42-.27.84-0.538,1.26-0.809a0.866,0.866,0,0,1,1.08,1.326c-0.59.61-1.19,1.214-1.82,1.8a1.054,1.054,0,0,1,1.16,1.562,0.39,0.39,0,0,1,.05.1,2.575,2.575,0,0,1,.13.591c0.1-.07.2-0.136,0.3-0.207,0.27-.2.52-0.43,0.79-0.635a1.091,1.091,0,0,0,.25-0.25v0.183a0.686,0.686,0,0,1,.54-0.65,0.954,0.954,0,0,1,.57.023,0.931,0.931,0,0,1,.64.683,2.924,2.924,0,0,1-.91,2.22c0.31-.114.63-0.217,0.95-0.3a0.478,0.478,0,0,1,.51.7c-1.03,1.867-3.36,3.389-5.7,4.174a18.092,18.092,0,0,0,5.74-2.453c0.61-.428,1.11.429,0.88,0.941-1.08,2.3-3.41,3.56-5.74,4.479a0.988,0.988,0,0,1-.04.373,4.684,4.684,0,0,1-.2.611v-0.006a0.7,0.7,0,0,1,1.26.561,0.6,0.6,0,0,0-.05.115c0.28-.144.55-0.3,0.82-0.458a0.785,0.785,0,0,1,.08-0.1,1.026,1.026,0,0,1,.77-0.45c0.33-.23.65-0.473,0.97-0.734a0.522,0.522,0,0,1,.85.528,3.442,3.442,0,0,1-.15.457,18.921,18.921,0,0,0,2.88-1.65c0.81-.577,1.57.71,0.96,1.357a16.242,16.242,0,0,1-1.97,1.77,2.78,2.78,0,0,1-.15.507c0.77-.3,1.53-0.605,2.27-0.948a0.867,0.867,0,0,1,.99,1.4,16.018,16.018,0,0,1-4.81,3.03c-0.35.292-.72,0.572-1.1,0.832,0.09-.021.18-0.044,0.28-0.065a0.708,0.708,0,0,1,.63,1.2,11.683,11.683,0,0,1-1.76,1.231,0.5,0.5,0,0,1-.11.853,19.544,19.544,0,0,0-2.66,1.278,0.774,0.774,0,0,1,.36.624c0.11-.046.21-0.09,0.32-0.134a9.153,9.153,0,0,0,.95-0.65,0.675,0.675,0,0,1,.83-0.054,24.173,24.173,0,0,0,5.02-2.426c0.69-.473,1.43.64,0.83,1.178a19.41,19.41,0,0,1-3.08,2.254,12.284,12.284,0,0,1-4.23,2.538q-0.27.26-.57,0.5a0.659,0.659,0,0,1,.16.35c0.42-.038.83-0.081,1.22-0.146a1.207,1.207,0,0,1,.25-0.085c0.33-.162.66-0.325,0.99-0.485a0.5,0.5,0,0,1,.4-0.024c1-.389,2.02-0.708,3.02-1.136,1.41-.611,2.8-1.293,4.2-1.921a1.059,1.059,0,0,1,1.24,1.484c0.01,0.007.02,0.009,0.03,0.016,0.26-.166.52-0.337,0.78-0.5a7.363,7.363,0,0,1-.85-1.959,0.67,0.67,0,0,1,.61-0.837,9.217,9.217,0,0,1-.51-2.635,0.847,0.847,0,0,1,1.65-.271,20.8,20.8,0,0,0,.95,1.936,8.764,8.764,0,0,1-.4-4.571,0.774,0.774,0,0,1,1.52.141,11.212,11.212,0,0,0,.21,1.312,0.931,0.931,0,0,1,.41-0.518,6.178,6.178,0,0,1,.22-1.247,0.808,0.808,0,0,1,.14-0.278c-0.09-.389-0.16-0.779-0.23-1.172a0.616,0.616,0,0,1,1.18-.353c0.18,0.658.38,1.314,0.57,1.968,0.13-.564.28-1.122,0.46-1.667,0.27-.795,1.67-0.827,1.59.149-0.08.865-.1,1.73-0.1,2.6a0.908,0.908,0,0,1,.46.937l-0.03.367c0,0.149-.01.3-0.01,0.452a0.7,0.7,0,0,1,.51.075,7.022,7.022,0,0,0-.1-1.521,0.6,0.6,0,0,1,1.14-.34c0.94,2.256.46,4.828-.5,7.28a0.567,0.567,0,0,1,.1.1,5.488,5.488,0,0,0,1.6-2.288,0.669,0.669,0,0,1,1.28.383,9.11,9.11,0,0,1-3,4.531,1.715,1.715,0,0,1-.12.287,18.642,18.642,0,0,0,3.05-2.353,0.485,0.485,0,0,1,.74.6c-0.22.305-.46,0.614-0.72,0.92a0.639,0.639,0,0,1,.4.839,7.222,7.222,0,0,1-2,2.546,0.732,0.732,0,0,1-.24.553c-0.1.085-.19,0.173-0.29,0.259a27.191,27.191,0,0,0,2.8-1.326,0.463,0.463,0,0,1,.7.266c0.32-.182.63-0.371,0.94-0.573a0.883,0.883,0,0,1,1.01,1.419c-0.09.07-.19,0.141-0.28,0.211a0.337,0.337,0,0,1-.09.3,0.6,0.6,0,0,1-.59.212c-0.33.248-.66,0.492-1.01,0.729,0.27-.011.54-0.028,0.81-0.049,0.24-.076.47-0.158,0.7-0.254a9.224,9.224,0,0,0,3.62-2.975c0.29-.351,1.08-0.3.98,0.3a5.306,5.306,0,0,1-.79,2.015,16.62,16.62,0,0,0,4.65-2.494,0.63,0.63,0,0,1,.86.92,13.4,13.4,0,0,1-4.67,3.415,13.619,13.619,0,0,0,4.2-.91,0.731,0.731,0,0,1,.68,1.292,13.771,13.771,0,0,1-3.94,1.521,0.812,0.812,0,0,1-.49.749,10.378,10.378,0,0,1-4.48,1.1,12.247,12.247,0,0,1-2.63.718,14.974,14.974,0,0,0,2.75,1.011,1.111,1.111,0,0,1,.87.96,0.508,0.508,0,0,1,.53-0.074,4.312,4.312,0,0,1,.92.464,8.105,8.105,0,0,0,5.27-2.25,0.373,0.373,0,0,1,.57.465,9.444,9.444,0,0,1-5.19,3.351,2.329,2.329,0,0,1-.54.811,36.431,36.431,0,0,0,4.69-.4,0.568,0.568,0,0,1,.25,1.107c-0.19.064-.4,0.122-0.59,0.184a0.654,0.654,0,0,1,.02.909,8.939,8.939,0,0,0,5.64-2.807c0.61-.674,1.56.238,1.17,0.96a9.314,9.314,0,0,1-4.66,3.927,0.75,0.75,0,0,1-.42.618c-0.37.193-.75,0.368-1.13,0.531a11.413,11.413,0,0,0,2.05-.374,0.943,0.943,0,0,1,.64,1.747,16.654,16.654,0,0,1-6.4,1.213c0.46,0.088.94,0.165,1.42,0.226a0.964,0.964,0,0,1,1.34.112c1.8,0.068,3.45-.247,4.32-1.418a0.453,0.453,0,0,1,.77.478,4.839,4.839,0,0,1-3.47,2.088,0.773,0.773,0,0,1,.23,1.148,9.687,9.687,0,0,1-1.33,1.429,22.864,22.864,0,0,0,3.83-2.3,1.058,1.058,0,0,1,1.67.788c0.29-.208.58-0.419,0.88-0.635a0.764,0.764,0,0,1,1.24.768,5.338,5.338,0,0,1-1.8,3.038c0.76,0.01,1.53.009,2.3-.009,0.82-.018.78,1.08,0.12,1.317a11.833,11.833,0,0,1-5.07.737c0.6,0.117,1.21.229,1.82,0.333a0.72,0.72,0,0,1-.05,1.386,18.767,18.767,0,0,1-2.32.176,0.424,0.424,0,0,1-.15.726,11.815,11.815,0,0,1-3.79.563,0.82,0.82,0,0,1-.11.1,5.053,5.053,0,0,1-.98.59,0.6,0.6,0,0,1-.04.122,5.454,5.454,0,0,1-.6,1.055,13.9,13.9,0,0,0,1.66-.7,1.028,1.028,0,0,1,1.46,1c1.11,0.023,2.21.093,3.25,0.168a0.926,0.926,0,0,1-.07,1.85l-0.07.006q0.51,0.052,1.02.084a10.743,10.743,0,0,0,5.34-3.83,0.783,0.783,0,0,1,1.41.632,7.935,7.935,0,0,1-2.55,3.851,0.513,0.513,0,0,1-.32.372c-0.1.043-.2,0.079-0.3,0.119a14.21,14.21,0,0,1-3.08,1.716,14.141,14.141,0,0,0,4.19-.469c0.61-.163.8,0.657,0.35,0.965a10.9,10.9,0,0,1-2.61,1.3,0.568,0.568,0,0,1-.65.436,0.682,0.682,0,0,1-.45.827c-0.08.018-.15,0.036-0.22,0.054a0.769,0.769,0,0,1-.64.752,14.609,14.609,0,0,1-4.66-.02,12.2,12.2,0,0,1-2.17,1.689,0.9,0.9,0,0,1,.23.453,18.51,18.51,0,0,0,4.27-1.19,0.74,0.74,0,0,1,.68,1.313,19.639,19.639,0,0,1-3.19,1.407c0.01,0.034.03,0.067,0.04,0.1,0.48-.066.95-0.141,1.43-0.228a0.764,0.764,0,0,1,.77.26,8.492,8.492,0,0,0,3.84-1.415,0.779,0.779,0,0,1,1.17.682c0.52-.213,1.04-0.435,1.55-0.671a0.8,0.8,0,0,1,.74,1.423,28.431,28.431,0,0,1-4.12,2.194,10.694,10.694,0,0,0,6.32-3.35c0.15-.178.41,0.062,0.31,0.247-0.12.2-.28,0.392-0.41,0.59,0.02-.013.05-0.028,0.07-0.039a0.786,0.786,0,0,1,.46-0.018,0.55,0.55,0,0,1,.44.525v-0.148a0.974,0.974,0,0,0,.2.2c0.22,0.166.42,0.349,0.64,0.513,0.08,0.058.16,0.111,0.24,0.168a2.112,2.112,0,0,1,.11-0.478,0.572,0.572,0,0,1,1.04-.164,0.329,0.329,0,0,1,.42-0.073c-0.38-.449-0.71-0.887-0.97-1.243a0.3,0.3,0,0,1,.39-0.423c0.45,0.238.88,0.506,1.31,0.778-0.25-.265-0.5-0.539-0.73-0.829a0.335,0.335,0,0,1-.05-0.354c-0.49-.347-0.97-0.707-1.43-1.087a0.59,0.59,0,0,1,.67-0.953c1.17,0.56,2.3,1.216,3.48,1.747a23.206,23.206,0,0,1-3.42-2.627,0.586,0.586,0,0,1,.53-0.988,0.2,0.2,0,0,0,.04.012c-1-.847-2.01-2-1.92-3.264a0.474,0.474,0,0,1,.87-0.261,8.239,8.239,0,0,0,2.34,2.522c-0.66-.9-0.85-1.787-0.02-2.426a0.39,0.39,0,0,1,.59.319,1.675,1.675,0,0,0,.15.579,0.815,0.815,0,0,1,1.44-.087,7.186,7.186,0,0,0,.54.837,7.586,7.586,0,0,0-.36-1.122,0.6,0.6,0,0,1,.94.4c0.04,0.211.09,0.416,0.15,0.621a0.936,0.936,0,0,1,.14-0.06,24.923,24.923,0,0,0-1.15-2.892c-0.23-.487.35-1.073,0.78-0.639,0.14,0.139.28,0.283,0.41,0.43a2.151,2.151,0,0,1,.04-0.247,6.417,6.417,0,0,1-.58-2.708,0.639,0.639,0,0,1,.5-0.626c-0.16-.262-0.32-0.523-0.49-0.786a0.6,0.6,0,0,1,.64-0.9,0.265,0.265,0,0,0,.05.019c-0.12-.342-0.23-0.684-0.33-1.02a0.411,0.411,0,0,1,.74-0.332c0.12,0.179.24,0.358,0.36,0.539,0.03-.236.07-0.473,0.09-0.708a0.522,0.522,0,0,1,.84-0.4,0.53,0.53,0,0,1,.85.4c0.02,0.235.05,0.472,0.08,0.708,0.13-.181.25-0.36,0.37-0.539a0.411,0.411,0,0,1,.74.332c-0.11.336-.22,0.678-0.33,1.02,0.02-.005.03-0.014,0.05-0.019a0.606,0.606,0,0,1,.64.9c-0.18.263-.34,0.524-0.49,0.786a0.622,0.622,0,0,1,.49.626,6.409,6.409,0,0,1-.57,2.708c0.01,0.083.03,0.165,0.04,0.247,0.13-.147.26-0.291,0.4-0.43a0.511,0.511,0,0,1,.78.639,24.85,24.85,0,0,0-1.14,2.892,0.837,0.837,0,0,1,.13.06c0.06-.205.11-0.41,0.15-0.621,0.16-.839,1.32-0.506,1.37.224v0.257a0.794,0.794,0,0,1,.34-0.253,7.173,7.173,0,0,1,1.53-1.973,0.689,0.689,0,0,1,1.15.527,1.188,1.188,0,0,1-.03.185,13.864,13.864,0,0,0,1.08-2.033c0.12-.3.64-0.37,0.69,0.024a6.877,6.877,0,0,1-.65,3.606c0.21-.315.66-0.073,0.69,0.257a2.962,2.962,0,0,1-.83,2.081,0.359,0.359,0,0,1,.28.437,5.877,5.877,0,0,1-1.24,1.926,0.567,0.567,0,0,1,.08.224l1.02-.653a0.7,0.7,0,0,1,.87,1.071q-0.705.741-1.47,1.46a0.851,0.851,0,0,1,.94,1.261c0.01,0.027.03,0.051,0.04,0.082a1.66,1.66,0,0,1,.1.478c0.08-.057.17-0.11,0.24-0.168,0.22-.164.43-0.347,0.64-0.513a0.848,0.848,0,0,0,.21-0.2,0.366,0.366,0,0,0,0,.148,0.552,0.552,0,0,1,.43-0.525,0.782,0.782,0,0,1,.46.018,0.764,0.764,0,0,1,.52.553,2.379,2.379,0,0,1-.74,1.794c0.26-.091.51-0.175,0.77-0.244a0.383,0.383,0,0,1,.41.569,8.371,8.371,0,0,1-4.61,3.375,14.784,14.784,0,0,0,4.65-1.983c0.49-.347.9,0.346,0.71,0.76-0.87,1.863-2.76,2.878-4.64,3.622a0.8,0.8,0,0,1-.03.3,3.116,3.116,0,0,1-.17.5c0.01,0,.01,0,0.01,0a0.561,0.561,0,0,1,1.01.453c-0.01.033-.03,0.062-0.04,0.093,0.23-.115.45-0.239,0.66-0.37,0.02-.029.05-0.054,0.07-0.084a0.834,0.834,0,0,1,.62-0.365c0.27-.184.53-0.381,0.79-0.592a0.418,0.418,0,0,1,.68.427,2.306,2.306,0,0,1-.12.369,15.13,15.13,0,0,0,2.33-1.334c0.66-.465,1.27.574,0.78,1.1a13.8,13.8,0,0,1-1.6,1.431,1.89,1.89,0,0,1-.12.411c0.62-.241,1.24-0.49,1.84-0.767a0.7,0.7,0,0,1,.8,1.13,12.9,12.9,0,0,1-3.89,2.448,10.489,10.489,0,0,1-.89.674c0.07-.017.15-0.036,0.23-0.052a0.573,0.573,0,0,1,.51.971,10.15,10.15,0,0,1-1.43,1,0.4,0.4,0,0,1-.09.689,15.154,15.154,0,0,0-2.14,1.033,0.657,0.657,0,0,1,.29.5c0.08-.036.17-0.072,0.25-0.108a8,8,0,0,0,.78-0.525,0.531,0.531,0,0,1,.66-0.044,19.04,19.04,0,0,0,4.06-1.963c0.56-.38,1.16.52,0.67,0.953a15.477,15.477,0,0,1-2.49,1.823,9.84,9.84,0,0,1-3.42,2.052c-0.15.14-.3,0.274-0.45,0.407a0.572,0.572,0,0,1,.12.282c0.34-.031.67-0.065,0.99-0.118a0.907,0.907,0,0,1,.2-0.069c0.27-.131.53-0.262,0.8-0.392a0.422,0.422,0,0,1,.33-0.02c0.8-.315,1.63-0.571,2.43-0.917,1.15-.5,2.27-1.046,3.4-1.553a0.86,0.86,0,0,1,.99,1.233c0.71-.448,1.41-0.909,2.11-1.368a0.476,0.476,0,0,1,.71.5,5.335,5.335,0,0,1-.37.961c0.26-.113.52-0.221,0.79-0.322,0.85-.322,1.23.875,0.61,1.355-0.43.324-.87,0.63-1.31,0.923a1.029,1.029,0,0,1-.3,1.616c-0.68.369-1.39,0.753-2.13,1.106a0.547,0.547,0,0,1-.38.593,19.311,19.311,0,0,1-5.03.876c-0.08.024-.15,0.052-0.23,0.074,0.37,0.073.74,0.146,1.11,0.227a0.541,0.541,0,0,1-.04,1.042,16.63,16.63,0,0,1-3.74.352c0.54,0.054,1.09.1,1.64,0.126a0.622,0.622,0,0,1,.47.249,6.6,6.6,0,0,0,2.23-.594,0.7,0.7,0,0,1,.8,1.122,16.494,16.494,0,0,1,3.31-.375,0.485,0.485,0,0,1,.31.83,6.507,6.507,0,0,1-.55.453,14.18,14.18,0,0,0,4.28-.77,0.343,0.343,0,0,1,.31.579,13.13,13.13,0,0,1-2.61,1.436c0.5,0.115.67,0.919,0.06,1.012a22.352,22.352,0,0,1-3.67.318,0.726,0.726,0,0,1-.43.353,3.662,3.662,0,0,1-1.18.137c0.24,0.1.5,0.2,0.75,0.28l0.05-.013a0.432,0.432,0,0,1,.47.166,9.185,9.185,0,0,0,1.47.277,0.44,0.44,0,0,1,.28.137c0.06-.043.13-0.081,0.19-0.132a0.729,0.729,0,0,1,1.18.726c0.09,0.031.18,0.068,0.27,0.1a3.161,3.161,0,0,0,.98-0.714,0.7,0.7,0,0,1,1.18.621,0.731,0.731,0,0,1,.37.991,3.643,3.643,0,0,1-.44.668,4.9,4.9,0,0,0,1.26-.762,0.648,0.648,0,0,1,.88.949,6.352,6.352,0,0,1-3.14,1.878,4.156,4.156,0,0,1-4.22,1.5c-0.03.022-.06,0.043-0.09,0.066,0.14,0.029.28,0.058,0.43,0.092a0.392,0.392,0,0,1-.03.753,11.263,11.263,0,0,1-2.7.323c-0.25.092-.51,0.171-0.77,0.243a0.748,0.748,0,0,1,.15.927,15.693,15.693,0,0,1,2.9-.2,0.666,0.666,0,0,1,.62.876,0.818,0.818,0,0,1,.47.379,3.972,3.972,0,0,0,2.21-.8,0.67,0.67,0,0,1,1.09.672c-0.02.057-.03,0.11-0.05,0.161a17.816,17.816,0,0,1,3.1-.929,0.913,0.913,0,0,1,.62,1.691c-0.36.244-.73,0.483-1.12,0.712a0.356,0.356,0,0,1,.04-0.006,0.512,0.512,0,0,1,.46.868,4.963,4.963,0,0,1-2.49,1.322,0.811,0.811,0,0,1-.43,1.256,7.729,7.729,0,0,1-5.89-.413,0.546,0.546,0,0,1-.37.454,4.5,4.5,0,0,1-.71.158c0.06,0.021.12,0.039,0.18,0.061a0.463,0.463,0,0,1-.03.888c-0.04.012-.08,0.022-0.12,0.033,0.14,0.023.27,0.051,0.41,0.07,1.21,0.172,2.58-.143,3.72.309,0.91-.137,1.8-0.411,2.69-0.542a0.614,0.614,0,0,1,.55,1.039,5.771,5.771,0,0,1-.5.467v0.028c0.97-.187,1.95-0.391,2.92-0.58a0.381,0.381,0,0,1,.34.647,8.991,8.991,0,0,1-1.6,1.286,8.486,8.486,0,0,0,2.36-.473,0.63,0.63,0,0,1,.43,1.17,11.2,11.2,0,0,1-1.86.658,0.176,0.176,0,0,1-.03.1,6.3,6.3,0,0,1,1.78.387,0.837,0.837,0,0,1,.14,1.528,8.973,8.973,0,0,1-4.31.627,5.365,5.365,0,0,1-4.54.575,3.214,3.214,0,0,1,1.28,1.243c0.01,0,.01,0,0.01.007,0.18,0.021.36,0.038,0.55,0.054a14.018,14.018,0,0,0,4.97-.659,0.929,0.929,0,0,1,.96,1.41,0.7,0.7,0,0,1,.65,1.075,3.532,3.532,0,0,1-.33.394,3.347,3.347,0,0,0,.53-0.313A0.855,0.855,0,0,1,1887.31,328.49Zm-136.94-74.344c-0.36-.212-0.71-0.439-1.05-0.673a11.4,11.4,0,0,0,2.26,1.627C1751.15,254.786,1750.74,254.461,1750.37,254.146Zm23.69-32.617c-0.03-.024-0.04-0.057-0.07-0.084-0.08.216-.16,0.433-0.25,0.647a0.493,0.493,0,0,1,.86.318,3.011,3.011,0,0,1-.37,1.588q1.17,0.213,2.34.422a0.583,0.583,0,0,1,.4-0.759c0.19-.056.39-0.1,0.59-0.148A18.658,18.658,0,0,1,1774.06,221.529Zm0.54-2.765a7.764,7.764,0,0,1-.18,1.267,0.722,0.722,0,0,1,.66.06,19.684,19.684,0,0,0,3.37,1.6,0.844,0.844,0,0,1,.25-0.07C1777.23,220.734,1775.83,219.686,1774.6,218.764Zm8.75-1.642c-0.36-.212-0.71-0.438-1.05-0.674a11.369,11.369,0,0,0,2.26,1.628C1784.13,217.762,1783.72,217.437,1783.35,217.122Zm-1.15,10.5a0.681,0.681,0,0,1-.5-0.776,42.2,42.2,0,0,1-7.94-1.77,0.433,0.433,0,0,1,.16.445,7.379,7.379,0,0,1-1.54,2.383,0.547,0.547,0,0,1,.1.277l1.26-.808a0.866,0.866,0,0,1,1.08,1.325c-0.4.417-.82,0.826-1.24,1.236a16.682,16.682,0,0,0,3.09.363,7.3,7.3,0,0,1-.67-0.56,0.6,0.6,0,0,1,.38-1.026,20.56,20.56,0,0,1,4.09.463,0.865,0.865,0,0,1,.99-1.389,8.068,8.068,0,0,0,2.76.736,0.759,0.759,0,0,1,.58-0.308c0.68-.034,1.35-0.089,2.02-0.156A20.656,20.656,0,0,1,1782.2,227.624Zm-8.02,15.582a0.565,0.565,0,0,0-.05.114c0.28-.143.55-0.295,0.82-0.457a0.791,0.791,0,0,1,.08-0.1,1.029,1.029,0,0,1,.77-0.45l0.16-.12a4.483,4.483,0,0,1-1.74-.972c-0.35.158-.7,0.31-1.06,0.451a0.988,0.988,0,0,1-.04.373,4.785,4.785,0,0,1-.2.611v-0.006A0.7,0.7,0,0,1,1774.18,243.206Zm3.29-9.383a0.476,0.476,0,0,1,.51.7c-0.08.13-.17,0.253-0.25,0.379a12.035,12.035,0,0,0,1.38-.277,0.539,0.539,0,0,1,.59-0.206,0.226,0.226,0,0,0,.05.016c0.32-.1.63-0.222,0.94-0.347a4.611,4.611,0,0,1-1.47-.167,0.888,0.888,0,0,1-.53-0.438c-0.56.009-1.11-.017-1.67-0.057a3.983,3.983,0,0,1-.51.7C1776.83,234.011,1777.15,233.908,1777.47,233.823Zm0,8.737c0.09-.045.18-0.1,0.28-0.145-0.08,0-.16,0-0.23,0C1777.5,242.463,1777.49,242.513,1777.47,242.56Zm1.72,1.985c0.59-.228,1.16-0.475,1.74-0.726-0.4-.023-0.8-0.053-1.2-0.111-0.13.109-.26,0.225-0.39,0.33A2.877,2.877,0,0,1,1779.19,244.545Zm2.92,0.724c0.14,0.018.27,0.026,0.4,0.045a0.739,0.739,0,0,1-.11-0.277C1782.31,245.121,1782.21,245.188,1782.11,245.269Zm0.58-1.1v0c0.01,0,.01,0,0.01,0A0.016,0.016,0,0,0,1782.69,244.167ZM1809.38,228c-0.57.038-1.14,0.076-1.73,0.064,0.59,0.059,1.19.1,1.79,0.137A0.505,0.505,0,0,1,1809.38,228Zm2.7,16.937a0.7,0.7,0,0,1-.09.344c0.01,0.011.03,0.02,0.04,0.031,0.14-.02.27-0.028,0.4-0.046C1812.31,245.153,1812.2,245.041,1812.08,244.932Zm4.37-19.766a0.21,0.21,0,0,1-.04.011l0.06,0A0.243,0.243,0,0,1,1816.45,225.166Zm3.21-1.487a0.8,0.8,0,0,1-.2-0.331l-0.39.2c0.29,0.13.59,0.266,0.88,0.385C1819.85,223.852,1819.76,223.764,1819.66,223.679Zm0.71,90.746q-0.525-13.911-6.44-22.027t-18.03-8.115q-23.19,0-24.48,30.142-0.255,6.955-.26,23.7t0.26,24.217q1.29,30.142,24.48,30.143,12.105,0,18.03-7.859t6.44-22.284q0.51-7.47.52-24.217T1820.37,314.425Zm9.46-22.053a2.129,2.129,0,0,1,.05.245l0.09,0.1C1829.92,292.6,1829.88,292.487,1829.83,292.372Zm1.99-31.531c-0.01.044-.03,0.089-0.04,0.133,0.05,0.019.09,0.042,0.14,0.06A1.537,1.537,0,0,1,1831.82,260.841Zm5.14-16.672a0.958,0.958,0,0,1-.1.117c-0.46.448-.92,0.882-1.38,1.312l-0.06.212a20.33,20.33,0,0,0,2.25-1.507C1837.43,244.263,1837.19,244.217,1836.96,244.169Zm5.92,8.379c-0.3-.006-0.6-0.029-0.9-0.049a1.015,1.015,0,0,1-.2.123l-0.12.061A10.783,10.783,0,0,0,1842.88,252.548Zm-2.04-8.038c-0.11,0-.22.008-0.33,0.01-0.1.163-.21,0.324-0.32,0.482C1840.41,244.848,1840.63,244.687,1840.84,244.51Zm9.77,34.537a2.679,2.679,0,0,1-.12-0.411,0.925,0.925,0,0,1-.1-0.1c-0.13.082-.27,0.164-0.4,0.247C1850.2,278.871,1850.4,278.965,1850.61,279.047Zm-1.29,2.06c0.25-.044.49-0.1,0.74-0.153,0,0,0,0,.01,0a11.579,11.579,0,0,1-1.7-1.206,25.161,25.161,0,0,1-3.14,1.532c0.01,0.05.03,0.1,0.04,0.148,1.13-.215,2.27-0.473,3.42-0.806A0.472,0.472,0,0,1,1849.32,281.107Zm-0.18,6.9c-0.06-.043-0.11-0.086-0.17-0.129a10.211,10.211,0,0,1-1.43-.291c-0.16.042-.32,0.085-0.47,0.122A20.224,20.224,0,0,0,1849.14,288.011Zm-2.07,2.032c-0.29-.186-0.57-0.373-0.85-0.567-0.45-.075-0.91-0.169-1.35-0.281a1.661,1.661,0,0,0,.13.14,14.39,14.39,0,0,0,1.78.875C1846.88,290.157,1846.97,290.1,1847.07,290.043Zm-3.18,4.817c0.16,0.062.32,0.125,0.47,0.187,0.51,0.007,1.02.014,1.52,0.019-0.73-.126-1.49-0.271-2.27-0.459C1843.7,294.691,1843.8,294.774,1843.89,294.86Zm-3.16,9.273a0.753,0.753,0,0,0-.08.08c-0.1.058-.19,0.11-0.29,0.164,0.18-.021.35-0.063,0.53-0.088C1840.84,304.239,1840.78,304.185,1840.73,304.133Zm1.37-1.163a0.146,0.146,0,0,1-.01-0.065l-0.47.2a4.666,4.666,0,0,0,.93.529A3.683,3.683,0,0,1,1842.1,302.97Zm1.35-11.708c-0.17-.214-0.35-0.418-0.53-0.626a0.7,0.7,0,0,1-.15.356C1842.99,291.082,1843.22,291.173,1843.45,291.262Zm-0.65-13.708c0.21,0.222.42,0.454,0.63,0.7v0a0.543,0.543,0,0,1,.75.27l0.11-.02a24.273,24.273,0,0,0,3.12-1A16.2,16.2,0,0,1,1842.8,277.554Zm2.08-1.828a15.49,15.49,0,0,0,3.65.306,0.487,0.487,0,0,1,.4.169,0.532,0.532,0,0,1,.75-0.093c0.16,0.118.34,0.215,0.51,0.324,0.48-.188.96-0.386,1.45-0.554a0.674,0.674,0,0,1,.9.759c0.01,0,.02,0,0.03.009q0.39,0.317.78,0.592a0.852,0.852,0,0,1,.63.365c0.02,0.03.04,0.055,0.06,0.084,0.22,0.131.44,0.255,0.66,0.37-0.01-.031-0.02-0.06-0.03-0.093a0.561,0.561,0,0,1,1.01-.453v0a4.594,4.594,0,0,1-.17-0.5,1.043,1.043,0,0,1-.02-0.3c-1.88-.742-3.76-1.754-4.63-3.605-0.26.066-.52,0.142-0.79,0.2a0.732,0.732,0,0,1-.19,1.361C1848.2,274.962,1846.54,275.378,1844.88,275.726Zm6.71-4.779a0.385,0.385,0,0,1,.41-0.569c0.26,0.069.52,0.153,0.77,0.244a2.473,2.473,0,0,1-.73-1.682,13.68,13.68,0,0,1-4.36,3.516,20.152,20.152,0,0,0,3.2.09,0.439,0.439,0,0,1,.68-0.207,14.634,14.634,0,0,0,4.64,1.983A8.443,8.443,0,0,1,1851.59,270.947Zm21.08,78.23c-0.1-.027-0.21-0.049-0.31-0.075a0.725,0.725,0,0,1-.35.593c-0.31.2-.64,0.373-0.96,0.559v0.558a8.069,8.069,0,0,0,2.74-1.949c-0.13-.03-0.27-0.052-0.4-0.086A0.556,0.556,0,0,1,1872.67,349.177Zm-167.2,79.633h-35.29a6.6,6.6,0,0,1-6.44-6.44V301.8l-34.53,26.535a7.327,7.327,0,0,1-3.86,1.289,6.679,6.679,0,0,1-5.41-3.092l-15.97-20.61a7.614,7.614,0,0,1-1.03-3.864,6.624,6.624,0,0,1,2.83-5.667l59.77-46.116a10.072,10.072,0,0,1,5.92-1.8h34.01a6.747,6.747,0,0,1,4.77,1.8,6.091,6.091,0,0,1,1.93,4.637V422.37a6.08,6.08,0,0,1-1.93,4.638A6.729,6.729,0,0,1,1705.47,428.81Z" transform="translate(-1602.94 -172.25)"/>
</svg>
